<?xml version="1.0" encoding="UTF-8" standalone="no"?>
<!DOCTYPE svg PUBLIC "-//W3C//DTD SVG 1.1//EN" "http://www.w3.org/Graphics/SVG/1.1/DTD/svg11.dtd">
<svg width="100%" height="100%" viewBox="0 0 100 100" version="1.1" xmlns="http://www.w3.org/2000/svg" xmlns:xlink="http://www.w3.org/1999/xlink" xml:space="preserve" xmlns:serif="http://www.serif.com/" style="fill-rule:evenodd;clip-rule:evenodd;stroke-linejoin:round;stroke-miterlimit:2;">
    <rect id="Artboard1" x="0" y="0" width="100" height="100" style="fill:none;"/>
    <g id="Artboard11" serif:id="Artboard1">
        <g transform="matrix(-1.05175,0,0,1.05175,102.588,-2.58769)">
            <g transform="matrix(3.04439,0,0,3.04439,-1464.78,-881.858)">
                <rect x="481.95" y="290.475" width="31.231" height="31.231" style="fill:rgb(246,248,248);"/>
            </g>
            <g transform="matrix(3.04439,0,0,3.04439,57.2688,64.5409)">
                <path d="M-3.715,-4.778L0.532,-0.53C0.825,-0.238 0.825,0.238 0.532,0.53C0.24,0.823 -0.236,0.823 -0.528,0.53L-5.837,-4.778L-0.53,-10.083C-0.238,-10.376 0.238,-10.376 0.53,-10.083C0.823,-9.791 0.823,-9.315 0.53,-9.023L-3.715,-4.778Z" style="fill:rgb(243,156,18);"/>
            </g>
        </g>
    </g>
</svg>
