<?xml version="1.0" encoding="UTF-8" standalone="no"?>
<!DOCTYPE svg PUBLIC "-//W3C//DTD SVG 1.1//EN" "http://www.w3.org/Graphics/SVG/1.1/DTD/svg11.dtd">
<svg width="100%" height="100%" viewBox="0 0 630 350" version="1.1" xmlns="http://www.w3.org/2000/svg" xmlns:xlink="http://www.w3.org/1999/xlink" xml:space="preserve" xmlns:serif="http://www.serif.com/" style="fill-rule:evenodd;clip-rule:evenodd;stroke-linejoin:round;stroke-miterlimit:2;">
    <rect id="Artboard1" x="0" y="0" width="629.7" height="349.8" style="fill:none;"/>
    <g transform="matrix(3.51149,0,0,3.51149,-136.854,-15.9626)">
        <g id="Artboard11" serif:id="Artboard1">
            <g>
                <g>
                    <g transform="matrix(0.12,0,0,0.12,0,0)">
                        <path d="M884.46,281.197L580.66,580.622L405.552,383.113L575.135,479.197L884.46,281.197Z" style="fill:rgb(255,204,35);fill-rule:nonzero;"/>
                    </g>
                    <g transform="matrix(0.12,0,0,0.12,0,0)">
                        <path d="M795.914,391.861C802.5,411.04 806.238,431.536 806.238,452.943C806.238,557.326 721.621,641.951 617.238,641.951C512.854,641.951 428.229,557.326 428.229,452.943C428.229,446.856 428.61,440.867 429.223,434.934L568.185,591.68L579.843,604.822L592.36,592.488L795.914,391.861Z" style="fill:rgb(255,204,35);fill-rule:nonzero;"/>
                    </g>
                    <g transform="matrix(1.16677,0,0,1,-30.1595,0)">
                        <g transform="matrix(22.875,0,0,26.69,122.446,61.9398)">
                            <path d="M0.89,-0.7L0.454,0L0.222,0L0.066,-0.7L0.308,-0.7L0.395,-0.292L0.648,-0.7L0.89,-0.7Z" style="fill:rgb(255,204,35);fill-rule:nonzero;"/>
                        </g>
                        <g transform="matrix(22.875,0,0,26.69,141.684,61.9398)">
                            <path d="M0.257,-0.517L0.052,-0.517L0.089,-0.7L0.735,-0.7L0.698,-0.517L0.493,-0.517L0.39,0L0.154,0L0.257,-0.517Z" style="fill:rgb(255,204,35);fill-rule:nonzero;"/>
                        </g>
                        <g transform="matrix(22.875,0,0,26.69,157.102,61.9398)">
                            <path d="M0.637,-0.316C0.637,-0.286 0.633,-0.254 0.625,-0.221L0.242,-0.221C0.247,-0.198 0.258,-0.182 0.275,-0.172C0.292,-0.162 0.316,-0.157 0.347,-0.157C0.392,-0.157 0.432,-0.17 0.466,-0.195L0.56,-0.058C0.493,-0.013 0.414,0.01 0.321,0.01C0.262,0.01 0.209,0 0.164,-0.021C0.118,-0.042 0.083,-0.071 0.058,-0.109C0.033,-0.147 0.02,-0.192 0.02,-0.243C0.02,-0.303 0.034,-0.357 0.063,-0.405C0.091,-0.452 0.131,-0.49 0.182,-0.517C0.233,-0.544 0.292,-0.557 0.359,-0.557C0.416,-0.557 0.466,-0.547 0.508,-0.527C0.55,-0.506 0.582,-0.478 0.604,-0.442C0.626,-0.405 0.637,-0.363 0.637,-0.316ZM0.349,-0.403C0.324,-0.403 0.304,-0.397 0.288,-0.384C0.271,-0.371 0.259,-0.353 0.251,-0.33L0.43,-0.33C0.43,-0.353 0.423,-0.371 0.408,-0.384C0.393,-0.397 0.374,-0.403 0.349,-0.403Z" style="fill:rgb(255,204,35);fill-rule:nonzero;"/>
                        </g>
                        <g transform="matrix(22.875,0,0,26.69,173.641,61.9398)">
                            <path d="M0.317,0.01C0.258,0.01 0.205,-0.001 0.161,-0.021C0.116,-0.043 0.081,-0.072 0.056,-0.11C0.031,-0.148 0.019,-0.192 0.019,-0.243C0.019,-0.302 0.034,-0.356 0.063,-0.404C0.092,-0.451 0.133,-0.489 0.186,-0.516C0.239,-0.543 0.298,-0.557 0.364,-0.557C0.429,-0.557 0.485,-0.543 0.534,-0.514C0.582,-0.485 0.616,-0.446 0.635,-0.397L0.443,-0.309C0.426,-0.356 0.396,-0.379 0.353,-0.379C0.322,-0.379 0.297,-0.368 0.278,-0.345C0.258,-0.322 0.248,-0.293 0.248,-0.257C0.248,-0.23 0.256,-0.209 0.271,-0.193C0.285,-0.176 0.307,-0.168 0.334,-0.168C0.357,-0.168 0.376,-0.173 0.393,-0.185C0.409,-0.196 0.423,-0.213 0.436,-0.238L0.601,-0.142C0.574,-0.093 0.536,-0.056 0.487,-0.029C0.438,-0.003 0.381,0.01 0.317,0.01Z" style="fill:rgb(255,204,35);fill-rule:nonzero;"/>
                        </g>
                        <g transform="matrix(22.875,0,0,26.69,189.402,61.9398)">
                            <path d="M0.47,-0.557C0.528,-0.557 0.575,-0.541 0.612,-0.508C0.648,-0.476 0.666,-0.43 0.666,-0.369C0.666,-0.347 0.664,-0.325 0.659,-0.302L0.599,0L0.373,0L0.428,-0.275C0.431,-0.291 0.432,-0.302 0.432,-0.308C0.432,-0.347 0.413,-0.367 0.375,-0.367C0.322,-0.367 0.288,-0.332 0.274,-0.263L0.221,0L-0.005,0L0.143,-0.742L0.369,-0.742L0.322,-0.505C0.344,-0.522 0.368,-0.535 0.393,-0.544C0.418,-0.553 0.444,-0.557 0.47,-0.557Z" style="fill:rgb(255,204,35);fill-rule:nonzero;"/>
                        </g>
                    </g>
                    <g transform="matrix(0.12,0,0,0.12,0,0)">
                        <path d="M441.351,384.242C468.856,313.884 537.137,263.943 617.235,263.943C677.886,263.943 731.704,292.639 766.273,337.055L574.61,459.747L441.351,384.242Z" style="fill:rgb(255,204,35);fill-rule:nonzero;"/>
                    </g>
                </g>
            </g>
        </g>
    </g>
</svg>
