<?xml version="1.0" encoding="UTF-8" standalone="no"?>
<!DOCTYPE svg PUBLIC "-//W3C//DTD SVG 1.1//EN" "http://www.w3.org/Graphics/SVG/1.1/DTD/svg11.dtd">
<svg width="100%" height="100%" viewBox="0 0 50 50" version="1.1" xmlns="http://www.w3.org/2000/svg" xmlns:xlink="http://www.w3.org/1999/xlink" xml:space="preserve" xmlns:serif="http://www.serif.com/" style="fill-rule:evenodd;clip-rule:evenodd;stroke-linejoin:round;stroke-miterlimit:2;">
    <rect id="Artboard1" x="0" y="0" width="50" height="50" style="fill:none;"/>
    <g transform="matrix(1.68996,0,0,1.68996,-1277.96,-542.747)">
        <g id="Artboard11" serif:id="Artboard1">
            <g>
                <g transform="matrix(1.06479,0,0,1,780.223,345.48)">
                    <path d="M0,-9.422C-0.987,-10.638 -2.184,-11.346 -3.69,-11.762C-4.937,-10.173 -6.855,-9.13 -9.028,-9.13C-11.144,-9.13 -13.014,-10.12 -14.262,-11.639C-18.066,-10.06 -19.728,-5.746 -19.774,-2.735C-19.831,0.954 -17.353,2.286 -17.353,2.286C-17.353,2.286 -4.438,2.34 -1.384,2.28C1.671,2.224 2.454,-1.406 2.454,-2.041C2.454,-2.673 2.249,-6.654 0,-9.422" style="fill:rgb(255,204,35);fill-rule:nonzero;"/>
                </g>
                <g transform="matrix(-1,0,0,1,770.634,334.966)">
                    <path d="M0,-10.847C2.996,-10.847 5.424,-8.419 5.424,-5.423C5.424,-2.428 2.996,0 0,0C-2.996,0 -5.424,-2.428 -5.424,-5.423C-5.424,-8.419 -2.996,-10.847 0,-10.847" style="fill:rgb(255,204,35);fill-rule:nonzero;"/>
                </g>
            </g>
        </g>
    </g>
</svg>
