<?xml version="1.0" encoding="UTF-8" standalone="no"?>
<!DOCTYPE svg PUBLIC "-//W3C//DTD SVG 1.1//EN" "http://www.w3.org/Graphics/SVG/1.1/DTD/svg11.dtd">
<svg width="100%" height="100%" viewBox="0 0 100 20" version="1.1" xmlns="http://www.w3.org/2000/svg" xmlns:xlink="http://www.w3.org/1999/xlink" xml:space="preserve" xmlns:serif="http://www.serif.com/" style="fill-rule:evenodd;clip-rule:evenodd;stroke-linejoin:round;stroke-miterlimit:2;">
    <rect id="Artboard1" x="0" y="0" width="100" height="20" style="fill:none;"/>
    <g id="Artboard11" serif:id="Artboard1">
        <g>
            <g transform="matrix(1.67242,0,0,1.67242,10.6276,16.8381)">
                <path d="M0,-8.157C0.139,-8.52 0.368,-8.52 0.507,-8.157L1.302,-6.098C1.441,-5.737 1.873,-5.425 2.26,-5.403L4.465,-5.284C4.853,-5.262 4.923,-5.046 4.623,-4.802L2.908,-3.407C2.607,-3.163 2.442,-2.655 2.542,-2.28L3.11,-0.147C3.209,0.228 3.025,0.363 2.699,0.152L0.846,-1.05C0.521,-1.261 -0.013,-1.261 -0.339,-1.05L-2.191,0.152C-2.518,0.363 -2.702,0.228 -2.603,-0.147L-2.035,-2.28C-1.935,-2.655 -2.1,-3.163 -2.401,-3.407L-4.115,-4.802C-4.417,-5.046 -4.346,-5.262 -3.958,-5.284L-1.753,-5.403C-1.365,-5.425 -0.934,-5.737 -0.794,-6.098L0,-8.157Z" style="fill:rgb(243,156,18);fill-rule:nonzero;"/>
            </g>
            <g transform="matrix(1.67242,0,0,1.67242,30.1022,16.8381)">
                <path d="M0,-8.157C0.139,-8.52 0.368,-8.52 0.507,-8.157L1.302,-6.098C1.441,-5.737 1.873,-5.425 2.26,-5.403L4.465,-5.284C4.853,-5.262 4.923,-5.046 4.622,-4.802L2.908,-3.407C2.607,-3.163 2.442,-2.655 2.542,-2.28L3.11,-0.147C3.209,0.228 3.025,0.363 2.699,0.152L0.846,-1.05C0.52,-1.261 -0.013,-1.261 -0.339,-1.05L-2.192,0.152C-2.518,0.363 -2.703,0.228 -2.603,-0.147L-2.035,-2.28C-1.936,-2.655 -2.1,-3.163 -2.401,-3.407L-4.115,-4.802C-4.417,-5.046 -4.346,-5.262 -3.958,-5.284L-1.753,-5.403C-1.365,-5.425 -0.934,-5.737 -0.795,-6.098L0,-8.157Z" style="fill:rgb(243,156,18);fill-rule:nonzero;"/>
            </g>
            <g transform="matrix(1.67242,0,0,1.67242,49.5761,16.8381)">
                <path d="M0,-8.157C0.14,-8.52 0.368,-8.52 0.507,-8.157L1.302,-6.098C1.441,-5.737 1.873,-5.425 2.261,-5.403L4.465,-5.284C4.854,-5.262 4.924,-5.046 4.623,-4.802L2.909,-3.407C2.607,-3.163 2.442,-2.655 2.542,-2.28L3.11,-0.147C3.209,0.228 3.025,0.363 2.699,0.152L0.847,-1.05C0.521,-1.261 -0.013,-1.261 -0.339,-1.05L-2.191,0.152C-2.518,0.363 -2.702,0.228 -2.603,-0.147L-2.034,-2.28C-1.935,-2.655 -2.1,-3.163 -2.401,-3.407L-4.115,-4.802C-4.416,-5.046 -4.346,-5.262 -3.958,-5.284L-1.753,-5.403C-1.365,-5.425 -0.934,-5.737 -0.794,-6.098L0,-8.157Z" style="fill:rgb(243,156,18);fill-rule:nonzero;"/>
            </g>
            <g transform="matrix(1.67242,0,0,1.67242,69.0506,16.8381)">
                <path d="M0,-8.157C0.139,-8.52 0.368,-8.52 0.507,-8.157L1.302,-6.098C1.441,-5.737 1.873,-5.425 2.261,-5.403L4.465,-5.284C4.853,-5.262 4.923,-5.046 4.623,-4.802L2.908,-3.407C2.607,-3.163 2.442,-2.655 2.542,-2.28L3.11,-0.147C3.209,0.228 3.025,0.363 2.699,0.152L0.846,-1.05C0.521,-1.261 -0.013,-1.261 -0.339,-1.05L-2.191,0.152C-2.518,0.363 -2.702,0.228 -2.603,-0.147L-2.034,-2.28C-1.935,-2.655 -2.1,-3.163 -2.401,-3.407L-4.115,-4.802C-4.416,-5.046 -4.346,-5.262 -3.958,-5.284L-1.753,-5.403C-1.365,-5.425 -0.934,-5.737 -0.794,-6.098L0,-8.157Z" style="fill:rgb(243,156,18);fill-rule:nonzero;"/>
            </g>
            <g transform="matrix(1.67242,0,0,1.67242,88.5251,16.8381)">
                <path d="M0,-8.157C0.139,-8.52 0.368,-8.52 0.507,-8.157L1.302,-6.098C1.441,-5.737 1.873,-5.425 2.26,-5.403L4.465,-5.284C4.853,-5.262 4.923,-5.046 4.622,-4.802L2.908,-3.407C2.607,-3.163 2.442,-2.655 2.542,-2.28L3.11,-0.147C3.209,0.228 3.025,0.363 2.699,0.152L0.846,-1.05C0.52,-1.261 -0.013,-1.261 -0.339,-1.05L-2.192,0.152C-2.518,0.363 -2.702,0.228 -2.603,-0.147L-2.035,-2.28C-1.936,-2.655 -2.1,-3.163 -2.401,-3.407L-4.115,-4.802C-4.417,-5.046 -4.346,-5.262 -3.958,-5.284L-1.753,-5.403C-1.365,-5.425 -0.934,-5.737 -0.795,-6.098L0,-8.157Z" style="fill:rgb(243,156,18);fill-rule:nonzero;"/>
            </g>
        </g>
    </g>
</svg>
