<?xml version="1.0" encoding="UTF-8" standalone="no"?>
<!DOCTYPE svg PUBLIC "-//W3C//DTD SVG 1.1//EN" "http://www.w3.org/Graphics/SVG/1.1/DTD/svg11.dtd">
<svg width="100%" height="100%" viewBox="0 0 500 500" version="1.1" xmlns="http://www.w3.org/2000/svg" xmlns:xlink="http://www.w3.org/1999/xlink" xml:space="preserve" xmlns:serif="http://www.serif.com/" style="fill-rule:evenodd;clip-rule:evenodd;stroke-linejoin:round;stroke-miterlimit:2;">
    <rect id="Artboard1" x="0" y="0" width="500" height="500" style="fill:none;"/>
    <g id="Artboard11" serif:id="Artboard1">
        <g transform="matrix(35.7488,0,0,35.7488,156.082,422.087)">
            <path d="M0,-9.791C0.806,-10.252 1.689,-10.258 2.354,-9.287C2.667,-8.832 2.822,-7.695 2.456,-7.219C2.185,-6.867 1.67,-6.773 1.455,-6.338C1.291,-6 1.353,-5.607 1.435,-5.26C1.625,-4.443 2.053,-3.506 2.737,-2.99C3.699,-2.268 4.832,-3.547 5.853,-2.961C6.333,-2.686 6.843,-1.834 6.858,-1.283C6.872,-0.732 6.516,-0.258 6.065,0.027C5.595,0.326 4.733,0.465 4.184,0.465C2.215,0.467 0.387,-1.518 -0.411,-2.547C-1.441,-3.873 -1.735,-5.703 -1.554,-7.385C-1.447,-8.379 -1.08,-9.174 0,-9.791" style="fill:rgb(241,242,242);fill-rule:nonzero;"/>
        </g>
    </g>
</svg>
